PathFileType	4	(X/Y/Z)	OpenSim_Sub10_EMGStiffKnee_Gyro.trc
DataRate	CameraRate	NumFrames	NumMarkers	Units	OrigDataRate	OrigDataStartFrame	OrigNumFrames
100	100	30	8	m	100	5232	8371
Frame#	Time	torso_imu_offset_imu	pelvis_imu_offset_imu	tibia_r_imu_offset_imu	femur_r_imu_offset_imu	tibia_l_imu_offset_imu	femur_l_imu_offset_imu	toes_r_imu_offset_imu	toes_l_imu_offset_imu
				X1	Y1	Z1	X2	Y2	Z2	X3	Y3	Z3	X4	Y4	Z4	X5	Y5	Z5	X6	Y6	Z6	X7	Y7	Z7	X8		Y8	Z8	

5232	52.31000000	0.10974700	-0.03745700	-0.03299700	-0.13258000	-0.03656900	-0.12517400	-0.28613500	0.04674300	-0.53217700	0.03330200	0.05806200	-0.77953200	-1.03332000	0.89876300	-3.52906200	-0.52037200	0.25033400	-0.08020600	-0.03775700	-0.05012900	-0.09924000	-0.52467100	1.89998900	-1.96382300
5233	52.32000000	0.08601200	-0.02023000	-0.04991100	-0.14902000	-0.02923600	-0.11478000	-0.30715600	0.02561700	-0.54483600	-0.05777600	0.04959900	-0.76333900	-1.08373100	0.89321500	-3.29342900	-0.46538400	0.14200100	-0.10952900	-0.02703600	-0.07003400	-0.12403600	-0.09009000	1.84650600	-1.72198200
5234	52.33000000	0.06558600	-0.01118800	-0.06574800	-0.17291800	-0.03242700	-0.10581500	-0.33816100	0.01321900	-0.55685500	-0.11414500	0.03806300	-0.76761000	-0.62743400	0.68632500	-3.05302000	-0.41745600	0.02181000	-0.12291200	-0.03596900	-0.07962500	-0.12728600	-0.00209500	1.90528400	-1.42477300
5235	52.34000000	0.02262100	0.01111600	-0.07714800	-0.20620800	-0.04055400	-0.08566000	-0.42976900	0.02935300	-0.59513800	-0.15354800	0.02434800	-0.75221500	0.05728600	0.49689700	-2.78485600	-0.45134200	-0.10382300	-0.14300900	-0.05034900	-0.10534100	-0.16231600	0.26530100	2.01498300	-1.15216900
5236	52.35000000	-0.00482200	0.02518600	-0.08719800	-0.22774900	-0.05782900	-0.06091600	-0.41112100	0.01889000	-0.63762800	-0.18025900	0.01624000	-0.72549300	0.23134300	0.39051600	-2.40774600	-0.54696500	-0.20556500	-0.17603100	-0.02499800	-0.11435300	-0.20291400	0.66916000	1.99504600	-0.92196100
5237	52.36000000	-0.02186400	0.03579800	-0.09688300	-0.24662000	-0.06430300	-0.04287400	-0.35638000	0.01231900	-0.66771500	-0.19228400	0.02223700	-0.68612800	0.42153000	0.20176800	-1.99080000	-0.69230500	-0.22767400	-0.23031400	0.07991200	-0.13513300	-0.23700100	0.80109700	1.87848300	-0.67007900
5238	52.37000000	-0.05630800	0.03166600	-0.11797500	-0.23797700	-0.07468900	-0.02670000	-0.29051500	0.05569700	-0.69746200	-0.18963200	0.03308500	-0.62564400	0.64819500	-0.06381400	-1.51526800	-0.88864600	-0.19457900	-0.33690200	0.06467400	-0.15078700	-0.22549400	0.48300300	1.67975300	-0.39264800
5239	52.38000000	-0.07855700	0.01210500	-0.14774700	-0.22030900	-0.10355400	-0.00462500	-0.25547200	0.06254700	-0.78035200	-0.17786800	0.04761500	-0.54328700	0.66318300	-0.16067900	-1.04565900	-1.08254200	-0.15457000	-0.50671600	-0.04516300	-0.20906900	-0.23304100	0.13650300	1.35489800	-0.14819700
5240	52.39000000	-0.08828900	0.00114500	-0.18373500	-0.23752300	-0.13907400	0.01780900	-0.22619500	0.02338300	-0.87592600	-0.17159500	0.05345600	-0.48590000	0.50772900	-0.14256000	-0.66476000	-1.13521400	-0.15011300	-0.68907900	-0.03116600	-0.26864600	-0.28210500	0.00616100	0.90865500	0.00628800
5241	52.40000000	-0.11027100	-0.00745700	-0.21258300	-0.29152300	-0.17452500	0.03688400	-0.22489600	0.04672400	-0.91971200	-0.16256700	0.05965500	-0.45480500	0.29834600	-0.20901100	-0.36770800	-0.97900500	-0.15350800	-0.88926000	0.01687800	-0.33971800	-0.34007100	0.08386100	0.46783800	0.05682200
5242	52.41000000	-0.13382700	0.00539500	-0.23410200	-0.37524900	-0.19149700	0.04366500	-0.22766300	0.07882400	-0.91403400	-0.14793300	0.07350200	-0.44161600	0.08768400	-0.34700800	-0.11679200	-0.69681700	-0.15902700	-1.03684600	0.03131200	-0.38296200	-0.37591600	0.10918300	0.15185700	0.05617000
5243	52.42000000	-0.17129600	0.03151200	-0.24755000	-0.47977100	-0.20543600	0.03829900	-0.28951700	0.07304500	-0.93221100	-0.14758400	0.08764900	-0.39216500	-0.11592300	-0.45778200	0.10797100	-0.39431300	-0.17091000	-1.05819400	-0.01837600	-0.44980600	-0.38652300	-0.01945100	-0.01879500	0.00276900
5244	52.43000000	-0.21052000	0.06186200	-0.25639800	-0.57790300	-0.24353400	0.02605600	-0.36770200	0.07529900	-1.02229700	-0.16722900	0.09686600	-0.31921100	-0.29583900	-0.51395200	0.30698300	-0.11693200	-0.17854400	-0.98718600	-0.01318200	-0.52744100	-0.38936500	-0.08740200	-0.09525400	-0.11059500
5245	52.44000000	-0.24937100	0.12494500	-0.26571200	-0.66521900	-0.29846300	0.01412900	-0.43835000	0.05472100	-1.12857600	-0.21342700	0.09316900	-0.24349000	-0.45623300	-0.53704500	0.45583100	0.09176300	-0.20632700	-0.82734000	0.04977200	-0.63300300	-0.37366000	-0.20346800	-0.09155600	-0.24377400
5246	52.45000000	-0.29836700	0.18149800	-0.28386800	-0.74139300	-0.34752400	0.00348800	-0.48905200	0.02600600	-1.21249500	-0.29027800	0.06886400	-0.20091000	-0.65133000	-0.54063100	0.55704600	0.19886400	-0.27648200	-0.61214000	0.00749800	-0.76560500	-0.30577200	-0.31062400	-0.13648200	-0.35974700
5247	52.46000000	-0.35006000	0.26350000	-0.31587400	-0.80466700	-0.39400600	-0.00648500	-0.48526800	0.03844700	-1.27698200	-0.38919400	0.04373200	-0.16806600	-0.80874000	-0.53202200	0.63540200	0.21036300	-0.35662700	-0.36641100	-0.26382300	-0.92692400	-0.27909300	-0.28995200	-0.30045100	-0.43997900
5248	52.47000000	-0.40135700	0.33991500	-0.35172300	-0.84745400	-0.45865400	-0.00657000	-0.48292700	0.05682300	-1.33492300	-0.50341500	0.04799300	-0.13818300	-0.92689000	-0.53282100	0.69385300	0.18408900	-0.44154700	-0.13112600	-0.00813500	-1.02598500	-0.25662800	-0.13303600	-0.57433700	-0.48482500
5249	52.48000000	-0.44182000	0.42120000	-0.38803800	-0.86620600	-0.54766600	0.00314900	-0.44267600	0.09117100	-1.39581600	-0.62368700	0.09550900	-0.10120900	-1.06794700	-0.54699000	0.73664100	0.18264500	-0.51979600	0.08532300	-0.07749000	-1.19340900	-0.23725500	0.14357500	-0.77533300	-0.52779600
5250	52.49000000	-0.49575800	0.49832800	-0.42251500	-0.89803700	-0.65004700	0.02434500	-0.38489600	0.08727500	-1.47098300	-0.74296500	0.15756900	-0.04163900	-1.09131700	-0.55244500	0.78544200	0.24894900	-0.55751500	0.27285900	-0.10731200	-1.37558100	-0.22517600	0.32271700	-0.82595600	-0.52698400
5251	52.50000000	-0.56004000	0.56265000	-0.44536600	-0.95601200	-0.75753600	0.05001900	-0.36973100	0.07826200	-1.55502400	-0.84157900	0.22060500	0.00760900	-1.12423000	-0.59343300	0.88156500	0.34402500	-0.58451800	0.39961900	-0.02396500	-1.52093900	-0.20356000	-0.43627500	-2.33980200	-0.25690300
5252	52.51000000	-0.61739100	0.61703300	-0.45753400	-1.03118200	-0.80833100	0.07267800	-0.36480500	0.08732300	-1.64583600	-0.90468300	0.27871900	0.05321400	-1.39704800	-0.86171100	0.95532600	0.44985700	-0.66752500	0.53886300	0.06225200	-1.71548700	-0.16220400	-3.48248500	-3.24370400	-0.57225900
5253	52.52000000	-0.64333300	0.66644900	-0.46910800	-1.04811800	-0.80043800	0.08304600	-0.34771000	0.13807600	-1.76396300	-0.95473400	0.32575500	0.12145000	-0.78158500	-1.21953800	1.02217400	0.54496900	-0.80586900	0.71531600	0.00624600	-1.95961200	-0.15100100	0.80986000	-3.89218900	-0.38230400
5254	52.53000000	-0.67091100	0.64019800	-0.51370000	-1.00881300	-0.73676100	0.08222800	-0.36045500	0.14750700	-1.90403700	-0.97042000	0.36201300	0.20458700	-0.44424000	-1.12558000	1.10684800	0.48705000	-0.99794900	0.91757700	0.08269400	-2.23794900	-0.15561600	-1.48003100	-2.89903300	0.68277900
5255	52.54000000	-0.71442500	0.57490500	-0.60454100	-0.90694900	-0.64567200	0.02550800	-0.43063400	0.11793100	-2.02662700	-0.93624300	0.40006400	0.32049700	-0.22737700	-1.52062700	0.94290900	0.27200600	-1.20618000	1.15586600	0.05676300	-2.61416300	-0.15325100	1.00639600	-2.99050300	1.42826100
5256	52.55000000	-0.72778800	0.47499200	-0.70019100	-0.63552400	-0.58179500	-0.08294700	-0.47627200	0.08258800	-2.16495900	-0.88000800	0.40615800	0.46040300	0.04228000	-1.23823900	0.81846400	-0.03347000	-0.99635800	1.16161800	-0.03279300	-3.06836300	-0.17191300	1.29516900	-2.54683800	1.25331300
5257	52.56000000	-0.64149200	0.35922500	-0.74053900	-0.27446300	-0.54931400	-0.17903200	-0.54985200	-0.01882700	-2.34487800	-0.77407200	0.36384400	0.66101600	-0.55056200	-0.67685600	1.10780700	-0.30213100	-0.16280800	0.65863000	-0.04759200	-3.57375200	-0.33211800	-0.26308200	-2.18932800	0.56543700
5258	52.57000000	-0.35042300	0.35141200	-0.73552000	-0.02284000	-0.52450500	-0.24795500	-0.75268900	-0.14989800	-2.49989200	-0.60437600	0.28727800	0.89515700	-0.68320100	-0.56611700	1.32219800	-0.18785400	0.37226400	0.00443800	0.13752400	-4.17200900	-0.59752000	-1.21423800	-1.34988100	0.18224000
5259	52.58000000	-0.18626700	0.38800900	-0.66850000	0.16367700	-0.50624700	-0.21245900	-0.94167900	-0.24499900	-2.60563000	-0.43835300	0.22699200	1.16450900	-0.95480200	-0.20895500	1.43425600	0.22877500	0.15766500	-0.46022200	0.72109900	-4.85461400	-0.82387100	-1.27414300	-0.63986600	0.16417300
5260	52.59000000	-0.18701900	0.31472000	-0.54155200	0.26210800	-0.46340500	-0.01589900	-1.07263700	-0.36119700	-2.70591300	-0.26666000	0.21519400	1.44728300	-1.11084500	0.24913000	1.47884300	0.26622300	-0.27331900	-0.63591400	0.99255100	-5.61401600	-1.01108500	0.36035100	-0.52559700	-0.10244100
5261	52.60000000	-0.14998000	0.21262200	-0.40086600	0.16452800	-0.41762100	0.20240800	-1.19851300	-0.46002800	-2.78034200	-0.08435600	0.29198600	1.70747800	-1.12315700	0.28681300	1.45185900	-0.19082400	-0.55659100	-0.66083400	1.67072700	-5.55466300	-1.10406400	-0.75321300	-0.29587200	-0.26870800
